Coordinates
version=1
nRows=8
nColumns=40
inDegrees=yes

Units are S.I. units (second, meters, Newtons, ...)
Angles are in degrees.

endheader
time	pelvis_tilt	pelvis_list	pelvis_rotation	pelvis_tx	pelvis_ty	pelvis_tz	hip_flexion_r	hip_adduction_r	hip_rotation_r	knee_angle_r	knee_angle_r_beta	ankle_angle_r	subtalar_angle_r	mtp_angle_r	hip_flexion_l	hip_adduction_l	hip_rotation_l	knee_angle_l	knee_angle_l_beta	ankle_angle_l	subtalar_angle_l	mtp_angle_l	lumbar_extension	lumbar_bending	lumbar_rotation	arm_flex_r	arm_add_r	arm_rot_r	elbow_flex_r	pro_sup_r	wrist_flex_r	wrist_dev_r	arm_flex_l	arm_add_l	arm_rot_l	elbow_flex_l	pro_sup_l	wrist_flex_l	wrist_dev_l
     44.26500000	     -6.63168705	     -3.66677443	      7.50376607	      0.89234134	      0.91813998	      0.54934928	      7.56797624	      2.72313761	    -13.96731273	     18.54264595	     18.54264595	     18.65004329	     -6.26246899	     -1.83583403	     29.98923464	     -7.23047808	      1.59334361	     16.49131369	     16.49131369	      3.13377788	     -3.32907327	      2.01193426	     -8.39668718	      2.91448813	      1.57965185	     48.65940272	    -16.96266945	     -8.19026259	     83.69965980	     44.78312401	      0.00000000	      0.00000000	    -16.34305549	     -8.19045607	     17.88463076	     30.96016037	     42.80195587	      0.00000000	      0.00000000
     44.28335714	     -6.68782313	     -3.70966070	      7.47848149	      0.89280776	      0.91727643	      0.54640086	      7.21620005	      2.58943916	    -14.01277741	     18.62730480	     18.62730480	     19.00325875	     -6.07804153	     -1.80359568	     29.69328064	     -7.23266879	      0.76378855	     16.23129605	     16.23129605	      2.22669707	     -2.96744150	     -0.16275923	     -8.45833206	      2.91949745	      1.42154737	     49.70805995	    -16.76848491	     -7.89586859	     86.17938165	     44.72291069	      0.00000000	      0.00000000	    -16.40089544	     -8.24963251	     17.92193116	     31.68912645	     42.89371897	      0.00000000	      0.00000000
     44.30171429	     -6.84659009	     -3.69903953	      7.43273005	      0.89338351	      0.91644746	      0.54328375	      6.92273729	      2.40499632	    -13.88878369	     18.60833684	     18.60833684	     19.21755129	     -6.09783364	     -1.84002829	     29.63693938	     -7.08817354	      0.38503887	     16.48613352	     16.48613352	      1.98593175	     -3.26643342	     -0.24280094	     -8.26329238	      2.72839658	      1.39700354	     50.65722011	    -16.78514144	     -7.94838761	     86.59932173	     44.71664523	      0.00000000	      0.00000000	    -15.95756660	     -8.33323457	     17.89540575	     31.82919087	     42.91013618	      0.00000000	      0.00000000
     44.32007143	     -6.89142805	     -3.76489845	      7.39640640	      0.89411034	      0.91561968	      0.53992801	      6.61014192	      2.25465559	    -13.84199100	     18.81329203	     18.81329203	     19.49080138	     -6.02889058	     -1.81916601	     29.65751170	     -6.96540963	      0.43545101	     17.18569495	     17.18569495	      1.40622336	     -4.38933822	     -1.49258661	     -8.30704581	      2.71977414	      1.28680510	     51.34490933	    -16.58275561	     -8.04549684	     88.35289862	     44.68132091	      0.00000000	      0.00000000	    -15.52862081	     -8.42500621	     17.74456276	     32.19451287	     42.99345223	      0.00000000	      0.00000000
     44.33842857	     -6.96602923	     -3.68615191	      7.32567250	      0.89513134	      0.91527309	      0.53640146	      6.17543137	      1.97724464	    -13.74773278	     18.77060425	     18.77060425	     19.59052108	     -6.02813105	     -1.80467843	     29.51437804	     -6.74063505	      0.22192255	     17.73602619	     17.73602619	      1.28460943	     -4.83795304	     -1.62570236	     -8.19158806	      2.51518418	      1.20723431	     51.73621384	    -16.51121896	     -8.05431493	     88.58140957	     44.67734683	      0.00000000	      0.00000000	    -14.73556239	     -8.57713271	     17.66093066	     32.43103886	     43.02132385	      0.00000000	      0.00000000
     44.35678571	     -6.87746272	     -3.60834035	      7.21975417	      0.89632247	      0.91515226	      0.53274680	      5.56259168	      1.69355222	    -13.62212577	     18.74329963	     18.74329963	     19.65157170	     -5.91391703	     -1.78112234	     29.44143032	     -6.50685933	      0.31946978	     18.81572032	     18.81572032	      1.31401474	     -5.76253375	     -1.88964559	     -8.30438531	      2.28982829	      1.25832299	     52.06309264	    -16.34687071	     -8.08284491	     88.93999000	     44.67034114	      0.00000000	      0.00000000	    -13.79713259	     -8.83601273	     17.50253395	     32.70147037	     43.06412164	      0.00000000	      0.00000000
     44.37514286	     -6.86135947	     -3.70027879	      7.15476381	      0.89761330	      0.91504021	      0.52866671	      5.00683181	      1.49619890	    -13.86086377	     18.68224278	     18.68224278	     19.70736876	     -5.26543316	     -1.80626198	     29.42411977	     -6.12641471	      1.62741167	     19.79715142	     19.79715142	      1.02678569	     -8.61624767	     -1.90951492	     -8.32891062	      2.36933109	      1.74961225	     51.49561043	    -16.83954188	     -9.04325047	     90.69621176	     44.66570453	      0.00000000	      0.00000000	    -12.79467365	     -8.91226916	     16.55515740	     33.05452505	     43.28678016	      0.00000000	      0.00000000
     44.39350000	     -6.79114783	     -3.73875592	      6.96937690	      0.89915436	      0.91527183	      0.52471964	      4.34493604	      1.30341023	    -13.79023123	     18.52042478	     18.52042478	     19.60074022	     -4.93234647	     -1.76569997	     29.35390645	     -5.95793844	      1.92045434	     20.87869064	     20.87869064	      1.27983016	     -9.58046458	     -1.96750291	     -8.33582707	      2.35009015	      1.87512562	     51.29528467	    -16.78243736	     -9.18328489	     90.73152699	     44.67415040	      0.00000000	      0.00000000	    -11.73553631	     -9.16694919	     16.20590666	     33.27976892	     43.36853639	      0.00000000	      0.00000000
